<?xml version="1.0" encoding="UTF-8"?>
<svg version="1.1" xmlns="http://www.w3.org/2000/svg" width="512" height="512">
<path d="M0 0 C1.7612623 -0.00389933 3.52252145 -0.00954482 5.28377324 -0.0167709 C10.09227956 -0.03145226 14.90045594 -0.0213881 19.70895135 -0.00703418 C24.906661 0.00411328 30.10432579 -0.00787934 35.30203247 -0.01687622 C45.47113339 -0.03078414 55.64010983 -0.023271 65.80920478 -0.00820064 C77.6565692 0.00868667 89.50390286 0.00544584 101.3512756 0.00170528 C122.4907447 -0.00416862 143.63015416 0.00998087 164.76960754 0.03465271 C185.27451308 0.0585812 205.77933899 0.0656528 226.28425598 0.05516052 C248.62657161 0.0437485 270.96885044 0.04182408 293.31116563 0.05625862 C295.69386661 0.05778443 298.07656759 0.05930478 300.45926857 0.06081963 C301.63153758 0.06157744 302.8038066 0.06233525 304.01159891 0.06311603 C312.26705812 0.06785594 320.52250087 0.06600957 328.77795982 0.06175423 C338.83812536 0.05682519 348.89821565 0.06282284 358.95836397 0.08264852 C364.08972951 0.09251231 369.22098052 0.09763538 374.35235214 0.08975601 C379.05190118 0.08268738 383.75121934 0.08953154 388.45073799 0.10735964 C390.14835827 0.11139637 391.84599968 0.1104173 393.54361203 0.10384078 C402.2097673 0.07314821 410.15752053 0.2260533 418.33137512 3.50120544 C419.236297 3.83120544 420.14121887 4.16120544 421.07356262 4.50120544 C433.78624973 10.46173273 443.73936169 21.22922615 448.64387512 34.31370544 C449.23227954 36.03422974 449.79758381 37.76296195 450.33137512 39.50120544 C450.50937487 40.06557166 450.68737463 40.62993788 450.87076831 41.21140611 C451.50630961 44.37085147 451.45968163 47.39542334 451.46280289 50.61846352 C451.46588184 51.69976342 451.46588184 51.69976342 451.46902299 52.80290776 C451.47470106 55.23113543 451.47323474 57.65930652 451.47181702 60.08753967 C451.4744002 61.84103059 451.47741322 63.59452091 451.48082042 65.34801042 C451.48889933 70.17674027 451.49068049 75.00545527 451.49141788 79.83419108 C451.49326691 85.03818203 451.50081352 90.24216525 451.5075531 95.44615173 C451.52114365 106.83051971 451.52716237 118.21488416 451.53156376 129.5992589 C451.53432517 136.7064614 451.53856235 143.81366253 451.54306793 150.92086411 C451.55526193 170.59461443 451.56556073 190.26836367 451.56894302 209.94211769 C451.56916259 211.20166398 451.56938216 212.46121027 451.56960838 213.75892463 C451.56982665 215.02150548 451.57004493 216.28408633 451.57026982 217.5849272 C451.57071329 220.14344573 451.57115985 222.70196426 451.5716095 225.26048279 C451.57183093 226.52959957 451.57205236 227.79871635 451.5722805 229.10629122 C451.57622828 249.6693183 451.59368111 270.23230994 451.61696902 290.79532333 C451.64067972 311.90187128 451.65314476 333.00840145 451.65431094 354.11496294 C451.6552279 365.96756251 451.66098544 377.82011592 451.67913055 389.67270279 C451.69452777 399.76601067 451.69965425 409.85925813 451.69139245 419.95257552 C451.68748452 425.1021153 451.68842258 430.25153337 451.7024498 435.4010582 C451.71518004 440.11760427 451.71399882 444.83393706 451.70185909 449.55048279 C451.69990057 451.25443501 451.70298767 452.95840228 451.71170345 454.66233332 C451.75329863 463.34574549 451.61965997 471.3118841 448.33137512 479.50120544 C448.00137512 480.40612732 447.67137512 481.31104919 447.33137512 482.24339294 C441.37084783 494.95608005 430.60335441 504.90919201 417.51887512 509.81370544 C415.79835082 510.40210986 414.06961862 510.96741413 412.33137512 511.50120544 C411.7670089 511.6792052 411.20264268 511.85720495 410.62117445 512.04059863 C407.4617291 512.67613994 404.43715722 512.62951196 401.21411705 512.63263321 C400.13281715 512.63571216 400.13281715 512.63571216 399.0296728 512.63885331 C396.60144514 512.64453138 394.17327405 512.64306506 391.74504089 512.64164734 C389.99154998 512.64423052 388.23805965 512.64724355 386.48457015 512.65065074 C381.65584029 512.65872966 376.82712529 512.66051081 371.99838948 512.66124821 C366.79439853 512.66309723 361.59041532 512.67064384 356.38642883 512.67738342 C345.00206086 512.69097397 333.6176964 512.69699269 322.23332167 512.70139408 C315.12611917 512.70415549 308.01891804 512.70839268 300.91171646 512.71289825 C281.23796613 512.72509225 261.5642169 512.73539106 241.89046288 512.73877335 C240.00114344 512.7391027 240.00114344 512.7391027 238.07365594 512.7394387 C236.81107509 512.73965698 235.54849424 512.73987525 234.24765337 512.74010015 C231.68913484 512.74054361 229.13061631 512.74099018 226.57209778 512.74143982 C225.302981 512.74166125 224.03386421 512.74188268 222.72628935 512.74211082 C202.16326227 512.7460586 181.60027063 512.76351143 161.03725724 512.78679934 C139.93070929 512.81051004 118.82417912 512.82297508 97.71761763 512.82414126 C85.86501805 512.82505822 74.01246464 512.83081576 62.15987778 512.84896088 C52.06656989 512.8643581 41.97332244 512.86948457 31.88000505 512.86122277 C26.73046526 512.85731485 21.58104719 512.8582529 16.43152237 512.87228012 C11.7149763 512.88501036 6.99864351 512.88382915 2.28209777 512.87168941 C0.57814556 512.86973089 -1.12582171 512.87281799 -2.82975276 512.88153377 C-11.51316493 512.92312895 -19.47930353 512.78949029 -27.66862488 509.50120544 C-28.57354675 509.17120544 -29.47846863 508.84120544 -30.41081238 508.50120544 C-42.72610037 502.72700448 -52.62126878 492.25830513 -57.81873655 479.72859192 C-60.97940471 470.37546539 -61.23260475 461.58708591 -61.17655945 451.85276794 C-61.18117615 450.09364304 -61.18753421 448.334522 -61.19546843 446.57540894 C-61.2120792 441.77270158 -61.20395312 436.97031447 -61.19152355 432.16760635 C-61.18244143 426.97596886 -61.19645843 421.7843849 -61.20744324 416.59275818 C-61.22519936 406.43468781 -61.22140142 396.27673588 -61.20979267 386.11866093 C-61.20074718 377.86058648 -61.19953918 369.60254515 -61.20388794 361.34446716 C-61.20450087 360.16767804 -61.2051138 358.99088892 -61.20574531 357.77843952 C-61.20702425 355.38757196 -61.20832111 352.99670441 -61.20963567 350.60583687 C-61.22103296 328.20378812 -61.20794112 305.80180492 -61.18643421 283.39976692 C-61.16856402 264.19135945 -61.17166837 244.98304868 -61.19010925 225.77464294 C-61.21153099 203.45097258 -61.2199344 181.12735962 -61.2076602 158.80368042 C-61.20638605 156.4217682 -61.20512856 154.03985597 -61.20388794 151.65794373 C-61.20327084 150.48609685 -61.20265374 149.31424997 -61.20201793 148.10689259 C-61.19856895 139.86185131 -61.20438364 131.61684654 -61.21380615 123.37181091 C-61.22504198 113.31940114 -61.22195274 103.26711625 -61.20068318 93.21472073 C-61.19019415 88.08902554 -61.18601432 82.96353834 -61.19927979 77.83784485 C-61.21125397 73.13993116 -61.20455866 68.44241702 -61.18336958 63.74453926 C-61.17892474 62.05090286 -61.18112175 60.35723226 -61.19087273 58.66361809 C-61.28058534 41.77811063 -57.74358328 27.87580243 -45.91862488 15.25120544 C-32.45765824 2.64285282 -17.8028506 -0.10988229 0 0 Z M-32.66862488 34.50120544 C-36.94417511 41.38902502 -38.81977843 47.30094459 -38.78887939 55.3788147 C-38.78973541 56.18796326 -38.79059143 56.99711182 -38.79147339 57.83078003 C-38.79313297 60.5597298 -38.7875978 63.28861867 -38.78215027 66.01756287 C-38.78184405 68.00036524 -38.78197723 69.98316772 -38.78251553 71.96597004 C-38.78274172 77.28636139 -38.77693664 82.60673034 -38.76990509 87.92711639 C-38.76421942 92.9155586 -38.76394247 97.90399529 -38.76322937 102.8924408 C-38.75797746 117.49119866 -38.74401636 132.08995233 -38.73112488 146.68870544 C-38.71049988 179.29683044 -38.68987488 211.90495544 -38.66862488 245.50120544 C34.92137512 245.50120544 108.51137512 245.50120544 184.33137512 245.50120544 C184.33137512 171.91120544 184.33137512 98.32120544 184.33137512 22.50120544 C135.63575012 22.37745544 135.63575012 22.37745544 85.95637512 22.25120544 C75.71042297 22.21478943 65.46447083 22.17837341 54.90803528 22.14085388 C45.71399194 22.12747515 45.71399194 22.12747515 36.51994324 22.11943054 C32.42862755 22.11570784 28.33752001 22.10073358 24.2462616 22.0789032 C19.02183018 22.05139712 13.79769996 22.04325364 8.57320285 22.04891634 C6.65943869 22.04773283 4.74566364 22.03984204 2.83196187 22.02434492 C-11.49911864 21.9137163 -22.71550476 22.97757328 -32.66862488 34.50120544 Z M206.33137512 22.50120544 C206.33137512 96.09120544 206.33137512 169.68120544 206.33137512 245.50120544 C279.92137512 245.50120544 353.51137512 245.50120544 429.33137512 245.50120544 C429.41387512 213.03745544 429.49637512 180.57370544 429.58137512 147.12620544 C429.61779114 136.8802533 429.65420715 126.63430115 429.69172668 116.0778656 C429.70510542 106.88382227 429.70510542 106.88382227 429.71315002 97.68977356 C429.71687273 93.59845787 429.73184698 89.50735033 429.75367737 85.41609192 C429.78118345 80.1916605 429.78932693 74.96753028 429.78366423 69.74303317 C429.78484773 67.82926902 429.79273852 65.91549397 429.80823565 64.00179219 C429.91087523 50.70562881 429.17487689 40.60559756 419.62434387 30.48167419 C412.78365517 24.57327697 405.31325257 22.34706209 396.45376587 22.38095093 C395.64461731 22.38009491 394.83546875 22.37923889 394.00180054 22.37835693 C391.27285076 22.37669735 388.5439619 22.38223252 385.8150177 22.38768005 C383.83221533 22.38798627 381.84941285 22.38785309 379.86661053 22.3873148 C374.54621918 22.3870886 369.22585023 22.39289368 363.90546417 22.39992523 C358.91702197 22.40561091 353.92858527 22.40588785 348.94013977 22.40660095 C334.34138191 22.41185287 319.74262824 22.42581396 305.14387512 22.43870544 C256.23168762 22.46964294 256.23168762 22.46964294 206.33137512 22.50120544 Z M-38.66862488 267.50120544 C-38.75112488 299.96495544 -38.83362488 332.42870544 -38.91862488 365.87620544 C-38.95504089 376.12215759 -38.99145691 386.36810974 -39.02897644 396.92454529 C-39.04235517 406.11858862 -39.04235517 406.11858862 -39.05039978 415.31263733 C-39.05412248 419.40395302 -39.06909674 423.49506056 -39.09092712 427.58631897 C-39.11843321 432.81075039 -39.12657668 438.03488061 -39.12091398 443.25937772 C-39.12209749 445.17314187 -39.12998828 447.08691692 -39.1454854 449.0006187 C-39.24812499 462.29678208 -38.51212665 472.39681333 -28.96159363 482.52073669 C-22.12090492 488.42913392 -14.65050233 490.6553488 -5.79101562 490.62145996 C-4.98186707 490.62231598 -4.17271851 490.623172 -3.33905029 490.62405396 C-0.61010052 490.62571354 2.11878835 490.62017837 4.84773254 490.61473083 C6.83053492 490.61442462 8.8133374 490.61455779 10.79613972 490.61509609 C16.11653106 490.61532229 21.43690002 490.60951721 26.75728607 490.60248566 C31.74572827 490.59679998 36.73416497 490.59652304 41.72261047 490.59580994 C56.32136833 490.59055802 70.92012201 490.57659693 85.51887512 490.56370544 C134.43106262 490.53276794 134.43106262 490.53276794 184.33137512 490.50120544 C184.33137512 416.91120544 184.33137512 343.32120544 184.33137512 267.50120544 C110.74137512 267.50120544 37.15137512 267.50120544 -38.66862488 267.50120544 Z M206.33137512 267.50120544 C206.33137512 341.09120544 206.33137512 414.68120544 206.33137512 490.50120544 C255.02700012 490.62495544 255.02700012 490.62495544 304.70637512 490.75120544 C314.95232727 490.78762146 325.19827942 490.82403748 335.75471497 490.86155701 C344.9487583 490.87493574 344.9487583 490.87493574 354.14280701 490.88298035 C358.2341227 490.88670305 362.32523023 490.90167731 366.41648865 490.92350769 C371.64092007 490.95101377 376.86505029 490.95915725 382.0895474 490.95349455 C384.00331155 490.95467806 385.9170866 490.96256884 387.83078837 490.97806597 C401.12695176 491.08070555 411.226983 490.34470721 421.35090637 480.79417419 C427.2593036 473.95348549 429.48551848 466.48308289 429.45162964 457.62359619 C429.45248566 456.81444763 429.45334167 456.00529907 429.45422363 455.17163086 C429.45588322 452.44268108 429.45034805 449.71379222 429.44490051 446.98484802 C429.44459429 445.00204565 429.44472747 443.01924317 429.44526577 441.03644085 C429.44549197 435.7160495 429.43968689 430.39568055 429.43265533 425.07529449 C429.42696966 420.08685229 429.42669272 415.0984156 429.42597961 410.10997009 C429.4207277 395.51121223 429.40676661 380.91245856 429.39387512 366.31370544 C429.37325012 333.70558044 429.35262512 301.09745544 429.33137512 267.50120544 C355.74137512 267.50120544 282.15137512 267.50120544 206.33137512 267.50120544 Z " fill="#000000" transform="translate(60.66862487792969,-0.5012054443359375)"/>
<path d="M0 0 C1.82568359 1.23071289 1.82568359 1.23071289 3.6484375 2.91015625 C4.68556885 3.86269287 4.68556885 3.86269287 5.74365234 4.83447266 C9.8876667 8.81168618 13.9588412 12.85599169 18 16.9375 C18.87011719 17.81212891 19.74023438 18.68675781 20.63671875 19.58789062 C22.76013549 21.72297449 24.88116378 23.86037205 27 26 C30.89043633 24.42204085 33.47695368 21.76445619 36.3515625 18.80859375 C36.8516684 18.30328629 37.35177429 17.79797882 37.86703491 17.27735901 C39.45786943 15.66876916 41.04183084 14.05363181 42.625 12.4375 C44.21617776 10.81869762 45.80879701 9.20138179 47.40438843 7.58692932 C48.39547098 6.58359573 49.38386808 5.57760092 50.36929321 4.56871033 C53.65180135 1.23828748 55.00062008 0.09993799 59.75 -0.375 C63.10058068 -0.35058775 64.84894532 0.24398646 67.4375 2.375 C70.52914739 5.54205343 70.89525579 6.2406045 71.5 10.625 C71.43780448 14.3130705 70.57239914 15.95404027 68.08984375 18.6484375 C67.45481934 19.3398584 66.81979492 20.0312793 66.16552734 20.74365234 C62.18831382 24.8876667 58.14400831 28.9588412 54.0625 33 C53.18787109 33.87011719 52.31324219 34.74023438 51.41210938 35.63671875 C49.27702551 37.76013549 47.13962795 39.88116378 45 42 C46.57795915 45.89043633 49.23554381 48.47695368 52.19140625 51.3515625 C52.69671371 51.8516684 53.20202118 52.35177429 53.72264099 52.86703491 C55.33123084 54.45786943 56.94636819 56.04183084 58.5625 57.625 C60.18130238 59.21617776 61.79861821 60.80879701 63.41307068 62.40438843 C64.41640427 63.39547098 65.42239908 64.38386808 66.43128967 65.36929321 C69.76171252 68.65180135 70.90006201 70.00062008 71.375 74.75 C71.35058775 78.10058068 70.75601354 79.84894532 68.625 82.4375 C65.45794657 85.52914739 64.7593955 85.89525579 60.375 86.5 C56.6869295 86.43780448 55.04595973 85.57239914 52.3515625 83.08984375 C51.6601416 82.45481934 50.9687207 81.81979492 50.25634766 81.16552734 C46.1123333 77.18831382 42.0411588 73.14400831 38 69.0625 C37.12988281 68.18787109 36.25976562 67.31324219 35.36328125 66.41210938 C33.23986451 64.27702551 31.11883622 62.13962795 29 60 C25.10956367 61.57795915 22.52304632 64.23554381 19.6484375 67.19140625 C19.1483316 67.69671371 18.64822571 68.20202118 18.13296509 68.72264099 C16.54213057 70.33123084 14.95816916 71.94636819 13.375 73.5625 C11.78382224 75.18130238 10.19120299 76.79861821 8.59561157 78.41307068 C7.60452902 79.41640427 6.61613192 80.42239908 5.63070679 81.43128967 C2.34819865 84.76171252 0.99937992 85.90006201 -3.75 86.375 C-7.10058068 86.35058775 -8.84894532 85.75601354 -11.4375 83.625 C-14.52914739 80.45794657 -14.89525579 79.7593955 -15.5 75.375 C-15.43780448 71.6869295 -14.57239914 70.04595973 -12.08984375 67.3515625 C-11.45481934 66.6601416 -10.81979492 65.9687207 -10.16552734 65.25634766 C-6.18831382 61.1123333 -2.14400831 57.0411588 1.9375 53 C2.81212891 52.12988281 3.68675781 51.25976562 4.58789062 50.36328125 C6.72297449 48.23986451 8.86037205 46.11883622 11 44 C9.42204085 40.10956367 6.76445619 37.52304632 3.80859375 34.6484375 C3.30328629 34.1483316 2.79797882 33.64822571 2.27735901 33.13296509 C0.66876916 31.54213057 -0.94636819 29.95816916 -2.5625 28.375 C-4.18130238 26.78382224 -5.79861821 25.19120299 -7.41307068 23.59561157 C-8.41640427 22.60452902 -9.42239908 21.61613192 -10.43128967 20.63070679 C-13.76171252 17.34819865 -14.90006201 15.99937992 -15.375 11.25 C-15.35058775 7.89941932 -14.75601354 6.15105468 -12.625 3.5625 C-8.76684177 -0.20379732 -5.3146328 -1.12445443 0 0 Z " fill="#000000" transform="translate(100,341)"/>
<path d="M0 0 C3.02508145 1.73602105 5.41790069 3.83580137 7 7 C7.08675538 9.69893181 7.11557897 12.37169231 7.09765625 15.0703125 C7.0962413 15.86654022 7.09482635 16.66276794 7.09336853 17.48312378 C7.08776345 20.0304538 7.07521014 22.57769647 7.0625 25.125 C7.05748565 26.85025915 7.05292263 28.57551967 7.04882812 30.30078125 C7.03779237 34.53388791 7.02052436 38.76692914 7 43 C8.09465576 42.97381592 9.18931152 42.94763184 10.31713867 42.9206543 C14.38903258 42.82996781 18.46083776 42.77268451 22.53344727 42.7253418 C24.29401676 42.70023939 26.05448247 42.66614972 27.81469727 42.62280273 C30.34938179 42.56195885 32.88268575 42.53374887 35.41796875 42.51171875 C36.59325386 42.47300911 36.59325386 42.47300911 37.7922821 42.43351746 C42.04155112 42.43135001 43.53892392 42.6306109 46.98339844 45.39013672 C49.90948234 49.17704192 50.43201631 52.28105264 50 57 C47.99572414 61.08278416 46.2748962 63.45554992 42 65 C39.28105045 65.1683504 36.66896045 65.23294575 33.953125 65.1953125 C33.18192322 65.1924826 32.41072144 65.18965271 31.6161499 65.18673706 C29.16060668 65.17557013 26.7054324 65.15047229 24.25 65.125 C22.58203653 65.11496568 20.91406732 65.10584061 19.24609375 65.09765625 C15.16392103 65.07564225 11.082023 65.04113667 7 65 C7.0314209 66.54324951 7.0314209 66.54324951 7.06347656 68.11767578 C7.13614994 71.95298213 7.18189821 75.78822822 7.21972656 79.62402344 C7.23978009 81.28070325 7.26703029 82.93731282 7.30175781 84.59375 C7.35055512 86.98194758 7.37303064 89.36920547 7.390625 91.7578125 C7.41127014 92.49242706 7.43191528 93.22704163 7.45318604 93.98391724 C7.45541026 99.13929606 6.26483828 102.04075748 3 106 C-0.69990228 107.84995114 -4.96167141 107.46986842 -9 107 C-12.55680172 104.89495409 -13.69468936 103.91593192 -15 100 C-15.08494728 97.34105893 -15.11594796 94.70914623 -15.09765625 92.05078125 C-15.0962413 91.27816452 -15.09482635 90.50554779 -15.09336853 89.70951843 C-15.08777466 87.24380611 -15.07522333 84.77818485 -15.0625 82.3125 C-15.05748421 80.63997527 -15.05292144 78.96744912 -15.04882812 77.29492188 C-15.03780724 73.19657954 -15.02054684 69.09830521 -15 65 C-16.54324951 65.0314209 -16.54324951 65.0314209 -18.11767578 65.06347656 C-21.95298213 65.13614994 -25.78822822 65.18189821 -29.62402344 65.21972656 C-31.28070325 65.23978009 -32.93731282 65.26703029 -34.59375 65.30175781 C-36.98194758 65.35055512 -39.36920547 65.37303064 -41.7578125 65.390625 C-42.85973434 65.42159271 -42.85973434 65.42159271 -43.98391724 65.45318604 C-49.14721493 65.45541367 -52.02297374 64.24665224 -56 61 C-58.00542966 58.13104256 -58.26640265 56.01298782 -57.9375 52.5625 C-57.88464844 51.82128906 -57.83179687 51.08007812 -57.77734375 50.31640625 C-56.60167555 46.81303318 -54.88102333 45.30048701 -52 43 C-49.12485531 42.33039525 -46.35696841 42.41491873 -43.41796875 42.51171875 C-42.60378983 42.51879349 -41.7896109 42.52586823 -40.95075989 42.53315735 C-38.36205357 42.56104402 -35.77554727 42.62376684 -33.1875 42.6875 C-31.42776572 42.7125905 -29.66799737 42.73540236 -27.90820312 42.75585938 C-23.60462704 42.81085128 -19.3026859 42.89708008 -15 43 C-15.02618408 41.94087402 -15.05236816 40.88174805 -15.0793457 39.79052734 C-15.17016552 35.84347845 -15.22736342 31.896521 -15.2746582 27.94873047 C-15.29973045 26.24349411 -15.33379764 24.53836446 -15.37719727 22.83349609 C-15.43817566 20.37570826 -15.46628112 17.91934639 -15.48828125 15.4609375 C-15.51408768 14.70444916 -15.5398941 13.94796082 -15.56648254 13.16854858 C-15.5685966 9.13645178 -15.17245372 6.71853312 -12.59448242 3.53369141 C-8.72267801 -0.24739321 -5.31915723 -0.9079081 0 0 Z " fill="#000000" transform="translate(132,85)"/>
<path d="M0 0 C0.90778198 -0.00846954 1.81556396 -0.01693909 2.75085449 -0.02566528 C5.75217698 -0.04906685 8.75298769 -0.05005661 11.75439453 -0.04882812 C13.84180914 -0.05592831 15.92922179 -0.06362709 18.01663208 -0.07189941 C22.39297916 -0.08535187 26.76914583 -0.08690976 31.14550781 -0.08105469 C36.75016114 -0.07516104 42.35394749 -0.10573317 47.95843315 -0.14617157 C52.27019911 -0.17203953 56.58175616 -0.17492672 60.89358902 -0.17127991 C62.95963849 -0.17297231 65.02569749 -0.18262638 67.09167099 -0.20042419 C69.98357633 -0.2225934 72.87372497 -0.21292187 75.765625 -0.1953125 C77.04229538 -0.21520737 77.04229538 -0.21520737 78.34475708 -0.23550415 C82.5306715 -0.17636726 85.20817819 0.15039791 88.53323364 2.8157959 C91.69053015 6.13249058 91.97951101 7.87320742 92.18408203 12.27148438 C91.86984366 16.19946406 90.10629862 18.28702997 87.46066284 21.02648926 C83.7419626 23.1428265 80.23453972 22.85427167 76.02441406 22.83984375 C75.11663208 22.84831329 74.2088501 22.85678284 73.27355957 22.86550903 C70.27223708 22.8889106 67.27142637 22.88990036 64.27001953 22.88867188 C62.18260492 22.89577206 60.09519227 22.90347084 58.00778198 22.91174316 C53.6314349 22.92519562 49.25526823 22.92675351 44.87890625 22.92089844 C39.27425293 22.91500479 33.67046658 22.94557692 28.06598091 22.98601532 C23.75421495 23.01188328 19.4426579 23.01477047 15.13082504 23.01112366 C13.06477557 23.01281606 10.99871658 23.02247013 8.93274307 23.04026794 C6.04083773 23.06243715 3.15068909 23.05276562 0.25878906 23.03515625 C-1.01788132 23.05505112 -1.01788132 23.05505112 -2.32034302 23.0753479 C-6.50625744 23.01621101 -9.18376413 22.68944584 -12.50881958 20.02404785 C-15.66611608 16.70735317 -15.95509695 14.96663633 -16.15966797 10.56835938 C-15.84542959 6.64037969 -14.08188456 4.55281378 -11.43624878 1.81335449 C-7.71754853 -0.30298275 -4.21012565 -0.01442792 0 0 Z " fill="#000000" transform="translate(345.98779296875,404.580078125)"/>
<path d="M0 0 C0.90778198 -0.00846954 1.81556396 -0.01693909 2.75085449 -0.02566528 C5.75217698 -0.04906685 8.75298769 -0.05005661 11.75439453 -0.04882812 C13.84180914 -0.05592831 15.92922179 -0.06362709 18.01663208 -0.07189941 C22.39297916 -0.08535187 26.76914583 -0.08690976 31.14550781 -0.08105469 C36.75016114 -0.07516104 42.35394749 -0.10573317 47.95843315 -0.14617157 C52.27019911 -0.17203953 56.58175616 -0.17492672 60.89358902 -0.17127991 C62.95963849 -0.17297231 65.02569749 -0.18262638 67.09167099 -0.20042419 C69.98357633 -0.2225934 72.87372497 -0.21292187 75.765625 -0.1953125 C77.04229538 -0.21520737 77.04229538 -0.21520737 78.34475708 -0.23550415 C82.5306715 -0.17636726 85.20817819 0.15039791 88.53323364 2.8157959 C91.69053015 6.13249058 91.97951101 7.87320742 92.18408203 12.27148438 C91.86984366 16.19946406 90.10629862 18.28702997 87.46066284 21.02648926 C83.7419626 23.1428265 80.23453972 22.85427167 76.02441406 22.83984375 C75.11663208 22.84831329 74.2088501 22.85678284 73.27355957 22.86550903 C70.27223708 22.8889106 67.27142637 22.88990036 64.27001953 22.88867188 C62.18260492 22.89577206 60.09519227 22.90347084 58.00778198 22.91174316 C53.6314349 22.92519562 49.25526823 22.92675351 44.87890625 22.92089844 C39.27425293 22.91500479 33.67046658 22.94557692 28.06598091 22.98601532 C23.75421495 23.01188328 19.4426579 23.01477047 15.13082504 23.01112366 C13.06477557 23.01281606 10.99871658 23.02247013 8.93274307 23.04026794 C6.04083773 23.06243715 3.15068909 23.05276562 0.25878906 23.03515625 C-1.01788132 23.05505112 -1.01788132 23.05505112 -2.32034302 23.0753479 C-6.50625744 23.01621101 -9.18376413 22.68944584 -12.50881958 20.02404785 C-15.66611608 16.70735317 -15.95509695 14.96663633 -16.15966797 10.56835938 C-15.84542959 6.64037969 -14.08188456 4.55281378 -11.43624878 1.81335449 C-7.71754853 -0.30298275 -4.21012565 -0.01442792 0 0 Z " fill="#000000" transform="translate(345.98779296875,340.580078125)"/>
<path d="M0 0 C0.92904144 -0.0087616 1.85808289 -0.01752319 2.8152771 -0.02655029 C5.88123504 -0.04852747 8.94574657 -0.03399718 12.01171875 -0.01708984 C14.14494096 -0.02045845 16.27816131 -0.02531144 18.41137695 -0.03158569 C22.88023162 -0.03895477 27.3485863 -0.02825001 31.81738281 -0.00488281 C37.54435524 0.02360453 43.27015612 0.0072008 48.99708557 -0.02274513 C53.4014976 -0.04081689 57.80563208 -0.03506053 62.21005249 -0.02210617 C64.32156513 -0.01877185 66.43310301 -0.02286014 68.54458618 -0.03450394 C71.49654843 -0.04721026 74.44661629 -0.02783801 77.3984375 0 C78.70619644 -0.01518173 78.70619644 -0.01518173 80.04037476 -0.03067017 C84.44042184 0.0461645 86.16553071 0.2240053 89.72753906 3.04702759 C92.60311797 6.83889462 93.12906253 9.95175595 92.69921875 14.64697266 C90.69484481 18.72995661 88.98089794 21.11991591 84.69921875 22.64697266 C81.73340196 22.84861792 78.86113464 22.94071402 75.89501953 22.9375 C75.00674469 22.94421722 74.11846985 22.95093445 73.20327759 22.95785522 C70.2669719 22.97685224 67.33089457 22.98076028 64.39453125 22.98291016 C62.35195827 22.98933686 60.30938622 22.99606513 58.26681519 23.00308228 C53.98465847 23.01505928 49.70258245 23.01876266 45.42041016 23.01757812 C39.9369564 23.01737491 34.45402075 23.04467841 28.97068977 23.07912254 C24.75159332 23.10137476 20.53262188 23.10541618 16.31347275 23.10435867 C14.29208465 23.1067171 12.27069323 23.11555423 10.24936295 23.13102341 C7.41994332 23.15064933 4.59164524 23.14485865 1.76220703 23.1328125 C0.51358887 23.14967102 0.51358887 23.14967102 -0.76025391 23.16687012 C-6.06988658 23.10951223 -9.07753253 22.15484651 -13.30078125 18.64697266 C-15.30621091 15.77801521 -15.5671839 13.65996047 -15.23828125 10.20947266 C-15.18542969 9.46826172 -15.13257813 8.72705078 -15.078125 7.96337891 C-12.51344581 0.32089267 -6.97044584 -0.08091969 0 0 Z " fill="#000000" transform="translate(345.30078125,127.35302734375)"/>
</svg>
